<?xml version="1.0" encoding="UTF-8"?>
<!DOCTYPE svg PUBLIC "-//W3C//DTD SVG 1.1//EN" "http://www.w3.org/Graphics/SVG/1.1/DTD/svg11.dtd">
<!-- Creator: CorelDRAW -->
<svg xmlns="http://www.w3.org/2000/svg" xml:space="preserve" width="2048px" height="2048px" style="shape-rendering:geometricPrecision; text-rendering:geometricPrecision; image-rendering:optimizeQuality; fill-rule:evenodd; clip-rule:evenodd"
viewBox="0 0 2048 2048"
 xmlns:xlink="http://www.w3.org/1999/xlink">
 <defs>
  <style type="text/css">
   <![CDATA[
    .fil1 {fill:none}
    .fil0 {fill:#212121;fill-rule:nonzero}
   ]]>
  </style>
 </defs>
 <g id="Layer_x0020_1">
  <metadata id="CorelCorpID_0Corel-Layer"/>
  <g id="_380743272">
   <path id="_380743776" class="fil0" d="M628.568 542.612l790.864 0c23.3398,0 44.537,9.52678 59.8831,24.8717 15.3449,15.3449 24.8717,36.5422 24.8717,59.8819l0 793.27c0,23.3386 -9.52678,44.5359 -24.8717,59.8808 -15.3461,15.3449 -36.5433,24.8717 -59.8831,24.8717l-790.864 0c-23.3398,0 -44.537,-9.52678 -59.8831,-24.8717 -15.3449,-15.3449 -24.8717,-36.5422 -24.8717,-59.8808l0 -793.27c0,-23.3398 9.52678,-44.537 24.8717,-59.8819 15.3461,-15.3449 36.5433,-24.8717 59.8831,-24.8717zm790.864 64.0016l-790.864 0c-5.67402,0 -10.8567,2.34449 -14.6327,6.12048 -3.77481,3.77481 -6.12048,8.95749 -6.12048,14.6315l0 793.27c0,5.67284 2.34567,10.8555 6.12048,14.6303 3.77599,3.77599 8.95867,6.12048 14.6327,6.12048l790.864 0c5.67402,0 10.8567,-2.34449 14.6327,-6.12048 3.77481,-3.77481 6.12048,-8.95749 6.12048,-14.6303l0 -793.27c0,-5.67402 -2.34567,-10.8567 -6.12048,-14.6315 -3.77599,-3.77599 -8.95867,-6.12048 -14.6327,-6.12048z"/>
   <path id="_380743992" class="fil0" d="M1485.49 915.172l22.402 0c17.6728,0 32.0008,14.328 32.0008,32.0008l0 153.654c0,17.6728 -14.328,32.0008 -32.0008,32.0008l-22.402 0c-17.6728,0 -32.0008,-14.328 -32.0008,-32.0008l0 -153.654c0,-17.6728 14.328,-32.0008 32.0008,-32.0008z"/>
   <path id="_380743872" class="fil0" d="M540.113 915.172l22.402 0c17.6728,0 32.0008,14.328 32.0008,32.0008l0 153.654c0,17.6728 -14.328,32.0008 -32.0008,32.0008l-22.402 0c-17.6728,0 -32.0008,-14.328 -32.0008,-32.0008l0 -153.654c0,-17.6728 14.328,-32.0008 32.0008,-32.0008z"/>
   <path id="_380744136" class="fil0" d="M640.77 543.611c-17.1201,4.28032 -27.5303,21.6307 -23.25,38.7508 4.28032,17.1201 21.6307,27.5303 38.7508,23.25 85.389,-21.3331 94.982,-92.1343 104.721,-164.025 8.43308,-62.2583 17.0315,-125.705 110.213,-121.421l-0.00472441 0.0933072c0.498426,0.0236221 0.994489,0.0330709 1.48701,0.034252l0 0.0011811 0.159449 0 151.153 0 151.312 0c1.22362,0 2.43071,-0.0720473 3.6189,-0.205512 91.1646,-3.21378 99.7087,59.7213 108.077,121.498 9.73938,71.8902 19.3323,142.691 104.721,164.025 17.1201,4.28032 34.4705,-6.12993 38.7508,-23.25 4.28032,-17.1201 -6.12993,-34.4705 -23.25,-38.7508 -43.4693,-10.8602 -50.1697,-60.3119 -56.9717,-110.523 -12.2528,-90.4489 -24.7642,-182.597 -173.668,-176.767 -0.424016,-0.0165354 -0.849213,-0.0271654 -1.27795,-0.0271654l-151.312 0 -151.312 0 0 0.0744095c-150.118,-6.41221 -162.658,86.0115 -174.946,176.72 -6.80197,50.2111 -13.5024,99.6627 -56.9717,110.523z"/>
   <path id="_380744352" class="fil0" d="M656.274 1442.39c-17.1201,-4.28032 -34.4705,6.12993 -38.7508,23.25 -4.28032,17.1201 6.12993,34.4705 23.25,38.7508 43.4681,10.8602 50.1697,60.3107 56.9705,110.522 12.2882,90.7087 24.8292,183.134 174.947,176.721l0 0.0744095 151.311 0 151.312 0c0.42874,0 0.853938,-0.0106299 1.27795,-0.0271654 148.904,5.82993 161.415,-86.3186 173.668,-176.767 6.80197,-50.2111 13.5024,-99.6627 56.9717,-110.523 17.1201,-4.28032 27.5303,-21.6307 23.25,-38.7508 -4.28032,-17.1201 -21.6307,-27.5303 -38.7508,-23.25 -85.389,21.3331 -94.982,92.1343 -104.721,164.025 -8.36812,61.7764 -16.9122,124.712 -108.077,121.498 -1.18819,-0.133465 -2.39528,-0.205512 -3.6189,-0.205512l-151.312 0 -151.152 0 -0.159449 0 0 0.0011811c-0.49252,0.0011811 -0.988583,0.0106299 -1.48701,0.034252l0.00472441 0.0933072c-93.182,4.28386 -101.782,-59.1638 -110.215,-121.422 -9.7382,-71.8902 -19.3323,-142.69 -104.72,-164.023z"/>
   <path id="_380743824" class="fil0" d="M1133.72 1216c29.0374,0 55.3252,-11.7685 74.3505,-30.7925 19.024,-19.0252 30.7925,-45.313 30.7925,-74.3505 0,-29.0374 -11.7685,-55.3252 -30.7925,-74.3505 -19.0252,-19.024 -45.313,-30.7925 -74.3505,-30.7925 -5.19095,0 -9.64607,0.244488 -13.376,0.715749 -4.48465,0.56693 -8.84646,1.40433 -13.0642,2.48858l0.034252 0.131102c-17.1118,4.41733 -34.5662,-5.87245 -38.9835,-22.9843 -0.529134,-2.04803 -0.844489,-4.10197 -0.964961,-6.13701 -3.30236,-25.7209 -15.8894,-48.5315 -34.2874,-64.9548 -18.4937,-16.5071 -43.0217,-26.5429 -70.0288,-26.5429 -26.8512,0 -51.3213,10.0217 -69.8611,26.5181 -18.8032,16.7291 -31.5638,40.0548 -34.604,66.2977l-31.7504 -3.62481 31.787 3.68268c-1.67953,14.4969 -12.8032,25.6028 -26.5122,27.887 -22.213,5.94331 -41.589,19.0961 -55.5107,36.8386 -13.9736,17.8099 -22.3087,40.3146 -22.3087,64.8272 0,29.0374 11.7685,55.3252 30.7925,74.3505 19.0252,19.024 45.313,30.7925 74.3505,30.7925l274.288 0zm119.601 14.4579c-30.6095,30.6083 -72.8977,49.5437 -119.601,49.5437l0 -64.0016c17.6728,0 32.0008,14.328 32.0008,32.0008 0,17.6728 -14.328,32.0008 -32.0008,32.0008l-274.288 0c-46.7032,0 -88.9914,-18.9354 -119.601,-49.5437 -30.6083,-30.6095 -49.5437,-72.8977 -49.5437,-119.601 0,-39.3142 13.4717,-75.541 36.0591,-104.328 18.6685,-23.791 43.6713,-42.4583 72.5209,-53.5182 8.31142,-33.7406 26.7166,-63.4772 51.8197,-85.8119 29.9032,-26.6055 69.2646,-42.7701 112.362,-42.7701 43.1008,0 82.5379,16.2732 112.53,43.0453 22.2437,19.8555 39.2079,45.5008 48.5209,74.5642 3.32599,-0.216142 6.53504,-0.325985 9.62009,-0.325985 46.7032,0 88.9914,18.9354 119.601,49.5437 30.6095,30.6107 49.5437,72.8977 49.5437,119.601 0,46.7032 -18.9354,88.9914 -49.5437,119.601z"/>
   <path id="_380744040" class="fil0" d="M1008.24 861.354c-8.83583,15.2563 -3.63189,34.7894 11.6244,43.6252 15.2563,8.83583 34.7894,3.63189 43.6252,-11.6244 10.9158,-18.7536 26.5618,-34.3488 45.267,-45.1134 17.9504,-10.3299 38.9504,-16.2414 61.526,-16.2414 34.0878,0 64.9465,13.8154 87.28,36.1488 22.3335,22.3335 36.1488,53.1922 36.1488,87.28 0,19.3748 -4.38071,37.6004 -12.1902,53.739 -8.2004,16.9429 -20.0752,31.6866 -34.5544,43.1563 -13.8071,10.9075 -16.1575,30.9437 -5.25,44.7508 10.9075,13.8071 30.9437,16.1575 44.7508,5.25 22.1398,-17.5382 40.2012,-39.8847 52.5544,-65.406 11.9752,-24.7453 18.691,-52.3996 18.691,-81.4902 0,-51.7536 -20.9799,-98.6127 -54.9,-132.53 -33.9177,-33.9201 -80.7768,-54.9 -132.53,-54.9 -33.7878,0 -65.6504,9.09568 -93.2764,24.9933 -28.513,16.4091 -52.2815,40.0406 -68.7662,68.3623z"/>
  </g>
 </g>
 <rect class="fil1" width="2048" height="2048"/>
</svg>
